<svg width="30" height="30" viewBox="0 0 30 30" fill="none" xmlns="http://www.w3.org/2000/svg">
<path d="M27.4374 10.9012L27.4062 10.6913L27.3737 10.6988C27.1516 9.66005 26.6399 8.70546 25.8979 7.94544C25.1558 7.18542 24.2138 6.65103 23.1807 6.4041C22.1476 6.15718 21.0657 6.20781 20.0602 6.55013C19.0547 6.89246 18.1667 7.51249 17.4988 8.33849C16.831 9.16449 16.4107 10.1627 16.2866 11.2176C16.1625 12.2725 16.3395 13.341 16.7974 14.2995C17.2552 15.2579 17.975 16.0672 18.8736 16.6336C19.7722 17.2 20.8128 17.5004 21.8749 17.5C22.1537 17.5 22.4212 17.4575 22.6874 17.4188C22.6012 17.7088 22.5124 18.0037 22.3699 18.2687C22.2274 18.6537 22.0049 18.9875 21.7837 19.3237C21.5987 19.6875 21.2724 19.9337 21.0324 20.245C20.7812 20.5475 20.4387 20.7487 20.1674 21C19.9012 21.2625 19.5524 21.3938 19.2749 21.5788C18.9849 21.745 18.7324 21.9288 18.4624 22.0163L17.7887 22.2937L17.1962 22.54L17.8012 24.9638L18.5474 24.7837C18.7862 24.7237 19.0774 24.6537 19.4087 24.57C19.7474 24.5075 20.1087 24.3363 20.5112 24.18C20.9074 24.0012 21.3687 23.8825 21.7962 23.5963C22.2262 23.3238 22.7224 23.0962 23.1599 22.7312C23.5837 22.355 24.0949 22.0287 24.4724 21.5512C24.8849 21.1037 25.2924 20.6338 25.6087 20.0988C25.9749 19.5888 26.2237 19.0287 26.4862 18.475C26.7237 17.9212 26.9149 17.355 27.0712 16.805C27.3674 15.7025 27.4999 14.655 27.5512 13.7587C27.5937 12.8612 27.5687 12.115 27.5162 11.575C27.4986 11.3495 27.4724 11.1247 27.4374 10.9012ZM13.6874 10.9012L13.6562 10.6913L13.6237 10.6988C13.4016 9.66005 12.8899 8.70546 12.1479 7.94544C11.4058 7.18542 10.4638 6.65103 9.43069 6.4041C8.3976 6.15718 7.31571 6.20781 6.3102 6.55013C5.30469 6.89246 4.41665 7.51249 3.74884 8.33849C3.08103 9.16449 2.66074 10.1627 2.5366 11.2176C2.41246 12.2725 2.58954 13.341 3.04736 14.2995C3.50518 15.2579 4.22502 16.0672 5.1236 16.6336C6.02217 17.2 7.06275 17.5004 8.12494 17.5C8.40369 17.5 8.67119 17.4575 8.93744 17.4188C8.85119 17.7088 8.76244 18.0037 8.61994 18.2687C8.47744 18.6537 8.25494 18.9875 8.03369 19.3237C7.84869 19.6875 7.52244 19.9337 7.28244 20.245C7.03119 20.5475 6.68869 20.7487 6.41744 21C6.15119 21.2625 5.80244 21.3938 5.52494 21.5788C5.23494 21.745 4.98244 21.9288 4.71244 22.0163L4.03869 22.2937C3.66244 22.4475 3.44744 22.5375 3.44744 22.5375L4.05244 24.9613L4.79869 24.7812C5.03744 24.7213 5.32869 24.6512 5.65994 24.5675C5.99869 24.505 6.35994 24.3337 6.76244 24.1775C7.15869 23.9987 7.61994 23.88 8.04744 23.5938C8.47744 23.3213 8.97369 23.0938 9.41119 22.7288C9.83494 22.3525 10.3462 22.0263 10.7237 21.5487C11.1362 21.1013 11.5437 20.6312 11.8599 20.0962C12.2262 19.5862 12.4749 19.0262 12.7374 18.4725C12.9749 17.9187 13.1662 17.3525 13.3224 16.8025C13.6187 15.7 13.7512 14.6525 13.8024 13.7563C13.8449 12.8588 13.8199 12.1125 13.7674 11.5725C13.7488 11.3479 13.7221 11.124 13.6874 10.9012Z" fill="black"/>
</svg>
